<?xml version="1.0" encoding="UTF-8"?>
<svg id="Camada_1" data-name="Camada 1" xmlns="http://www.w3.org/2000/svg" viewBox="0 0 608.68 608.68">
  <defs>
    <style>
      .cls-1 {
        fill: #030303;
      }
    </style>
  </defs>
  <g>
    <path class="cls-1" d="M99.95,444.11v14.6h-2.81v-6.42l-1.35,2.8c-2.31,2.89-5.96,4.25-10.13,4.25-9.52,0-15.44-6.6-15.44-16.09s6.67-16.36,16.24-16.36c8.32,0,12.78,4.43,13.73,10.35l.05.45h-3.11l-.1-.45c-1.05-4.75-4.51-8.09-10.68-8.09-7.27,0-12.68,5.47-12.68,13.97s5.11,13.97,12.18,13.97c5.51,0,10.98-3.62,10.98-10.67h-9.42v-2.31h12.53Z"/>
    <path class="cls-1" d="M135.89,458.71h-22.41v-31.19h21.9v2.31h-18.8v12.11h17.49v2.35h-17.49v12.11h19.3v2.31Z"/>
    <path class="cls-1" d="M171.78,458.71h-3.46c-.85-1.99-1.45-3.93-1.95-8-.45-3.3-1.95-5.88-5.66-6.06-.9-.05-1.9-.05-2.71-.05h-7.07v14.1h-3.11v-31.19h10.18c1.75,0,3.11,0,4.71.18,5.11.59,8.52,3.12,8.52,8.09,0,4.11-2.91,6.6-6.52,7.41,2.96,1.08,4.41,3.93,4.76,7.19.5,4.29,1.1,6.55,2.31,8.32ZM158.04,442.26c1.5,0,2.36,0,3.51-.09,3.81-.27,6.32-2.49,6.32-6.15s-2.16-5.47-5.91-5.97c-1.2-.14-2.31-.18-3.96-.18h-7.07v12.38h7.12Z"/>
    <path class="cls-1" d="M205.82,458.71h-22.41v-31.19h21.9v2.31h-18.8v12.11h17.49v2.35h-17.49v12.11h19.3v2.31Z"/>
    <path class="cls-1" d="M238.7,458.71l-17.99-28.48c.1,3.84.15,8.5.15,12.38v16.09h-3.11v-31.19h4.71l18.04,28.48c-.1-3.89-.15-8.5-.15-12.38v-16.09h3.06l.05,31.19h-4.76Z"/>
    <path class="cls-1" d="M284.97,437.24l.05.45h-3.11l-.1-.45c-1.05-4.75-4.51-8.09-10.68-8.09-7.12,0-12.48,5.47-12.48,13.97s5.11,13.97,12.13,13.97c6.42,0,9.82-3.48,10.88-8.27l.1-.45h3.11l-.05.45c-.9,5.74-5.41,10.53-14.24,10.53-9.47,0-15.39-6.6-15.39-16.09s6.62-16.36,16.09-16.36c8.32,0,12.78,4.43,13.68,10.35Z"/>
    <path class="cls-1" d="M297.8,458.71v-31.19h3.11v31.19h-3.11Z"/>
    <path class="cls-1" d="M319.5,447.28l-4.46,11.44h-3.31l12.78-31.19h4.16l12.48,31.19h-3.36l-4.51-11.44h-13.78ZM332.39,444.93l-5.86-15.14-6.11,15.14h11.98Z"/>
    <path class="cls-1" d="M385.47,458.71h-3.11v-16.81c0-3.93,0-8.27.1-11.89-1.35,3.62-3.11,8-4.71,11.84l-7.02,16.86h-3.91l-7.07-16.9c-1.55-3.8-3.31-8.18-4.61-11.75.1,3.62.1,7.95.1,11.84v16.81h-3.11v-31.19h5.06l11.68,28.84,11.63-28.84h4.96v31.19Z"/>
    <path class="cls-1" d="M422.06,458.71h-22.41v-31.19h21.9v2.31h-18.8v12.11h17.49v2.35h-17.49v12.11h19.3v2.31Z"/>
    <path class="cls-1" d="M454.95,458.71l-17.99-28.48c.1,3.84.15,8.5.15,12.38v16.09h-3.11v-31.19h4.71l18.04,28.48c-.1-3.89-.15-8.5-.15-12.38v-16.09h3.06l.05,31.19h-4.76Z"/>
    <path class="cls-1" d="M486.43,429.83v28.88h-3.11v-28.88h-12.68v-2.31h28.47v2.31h-12.68Z"/>
    <path class="cls-1" d="M538.46,443.12c0,9.4-5.96,16.23-16.09,16.23s-16.04-6.82-16.04-16.23,5.96-16.23,16.04-16.23,16.09,6.73,16.09,16.23ZM535,443.12c0-8.77-5.16-13.97-12.63-13.97s-12.58,5.2-12.58,13.97,5.16,13.97,12.58,13.97,12.63-5.24,12.63-13.97Z"/>
  </g>
  <g>
    <path class="cls-1" d="M452.88,273.82l84.71,124.38c.56.82-.03,1.93-1.02,1.93h-92.36c-.41,0-.79-.2-1.02-.54l-43.06-63.22c-.46-.67-1.43-.72-1.96-.11l-10.08,11.75-43.26,50.48c-.51.6-1.45.57-1.92-.06l-47.11-62.53c-.36-.48-.33-1.14.08-1.58l48.39-52.18,9.85-11.74c.35-.42.39-1.03.07-1.49l-33.19-48.74-46.92-68.9c-.56-.82.03-1.93,1.02-1.93h92.36c.41,0,.79.2,1.02.54l37.95,55.72c.46.68,1.44.72,1.96.1l46.9-55.92c.23-.28.58-.44.94-.44h99.46c1.05,0,1.62,1.24.94,2.04l-103.66,120.95c-.36.42-.4,1.04-.08,1.5Z"/>
    <path class="cls-1" d="M127.27,400.12H52.99c-.68,0-1.23-.55-1.23-1.23v-244.87c0-1.24,1.61-1.7,2.27-.66l74.28,117.29c.12.2.19.43.19.66v127.59c0,.68-.55,1.23-1.23,1.23Z"/>
    <path class="cls-1" d="M323.34,400.12h-85.9c-.4,0-.78-.2-1.01-.52l-87.7-124.86c-.32-.46-.29-1.07.06-1.5l37.65-44.89c.67-.8.1-2.03-.94-2.03h-68.28c-.41,0-.79-.2-1.02-.54l-50.75-74.51c-.56-.82.03-1.93,1.02-1.93h188.79c.4,0,.78.2,1.01.52l44.47,63.17c.32.46.3,1.08-.07,1.51l-59.55,70.28c-.37.44-.39,1.07-.05,1.53l83.26,111.8c.61.81.03,1.97-.99,1.97Z"/>
  </g>
</svg>